# File created by Blade
# Date/Time:  Tue Jan 27 19:54:25 2015
# Frame Rate: 120.000 fps
#------------------------------------------------------
:FULLY-SPECIFIED
:DEGREES
2228
root 7.155265 33.599317 -0.126569 -1.210661 -14.501634 -23.993937
Spine 8.488002 5.493031 21.679129
Head 8.028218 -6.469946 6.079302
LeftShoulder -13.714228 -2.526034 27.708258
LeftArm 0.684030 -11.055312 -81.450156
LeftForeArm -45.512951 -0.000000 126.670361
LeftHand 5.390235 -0.000000 -30.566134
LeftHandThumb1 -26.253704 0.000000 33.147579
RightShoulder -18.078458 -18.152048 -19.713708
RightArm 6.816968 -13.741268 77.558163
RightForeArm -19.635207 0.000000 20.453226
RightHand 17.381070 -0.000000 7.887426
RightHandThumb1 -24.326973 -0.000000 -32.862282
LeftUpLeg 13.106144 13.225430 15.059520
LeftLeg -2.071716 -0.000000 0.000000
LeftFoot -19.911632 15.619151 -17.641803
LeftToeBase 22.711501 -0.000000 -0.000000
RightUpLeg -80.565643 -15.280064 -3.089755
RightLeg 124.751721 -0.000000 -0.000000
RightFoot 28.424686 -26.016184 16.968932
RightToeBase 7.903676 -0.000000 -0.000000
2229
root 7.159466 33.590753 -0.128426 -1.217550 -14.608611 -23.915509
Spine 8.514531 5.555994 21.621336
Head 8.016732 -6.441058 6.021475
LeftShoulder -13.754589 -2.551014 27.681794
LeftArm 0.629306 -11.174683 -81.451554
LeftForeArm -45.611644 0.000000 126.702998
LeftHand 5.346320 -0.000000 -30.675121
LeftHandThumb1 -26.253704 0.000000 33.147579
RightShoulder -18.073835 -18.174115 -19.740106
RightArm 6.716888 -13.793372 77.707901
RightForeArm -19.681625 -0.000000 20.467969
RightHand 17.462037 -0.000000 8.338084
RightHandThumb1 -24.326973 -0.000000 -32.862282
LeftUpLeg 13.161041 13.265032 14.967709
LeftLeg -2.130759 -0.000000 0.000000
LeftFoot -19.930473 15.663706 -17.688497
LeftToeBase 22.744395 -0.000000 -0.000000
RightUpLeg -80.616075 -15.302417 -2.898878
RightLeg 124.594515 -0.000000 -0.000000
RightFoot 28.412984 -26.002860 17.157106
RightToeBase 7.007461 -0.000000 -0.000000
2230
root 7.167513 33.579672 -0.130953 -1.224041 -14.700877 -23.793357
Spine 8.523781 5.611525 21.516851
Head 8.019651 -6.414494 5.951302
LeftShoulder -13.804774 -2.500642 27.668466
LeftArm 0.629844 -11.263227 -81.466006
LeftForeArm -45.680223 -0.000000 126.727810
LeftHand 5.338963 -0.000000 -30.747342
LeftHandThumb1 -26.253704 0.000000 33.147579
RightShoulder -18.069729 -18.207389 -19.766704
RightArm 6.654732 -13.965276 77.833938
RightForeArm -19.488824 -0.000000 20.459929
RightHand 17.469453 -0.000000 7.892570
RightHandThumb1 -24.326973 -0.000000 -32.862282
LeftUpLeg 13.199445 13.270103 14.815350
LeftLeg -2.203030 -0.000000 0.000000
LeftFoot -19.922558 15.745285 -17.721123
LeftToeBase 22.614232 -0.000000 -0.000000
RightUpLeg -80.713470 -15.360347 -2.724857
RightLeg 124.409963 -0.000000 -0.000000
RightFoot 28.430835 -26.047800 17.199851
RightToeBase 7.242454 -0.000000 -0.000000
2231
root 7.172920 33.569850 -0.133512 -1.229653 -14.769362 -23.697565
Spine 8.520878 5.646719 21.441683
Head 8.052213 -6.395816 5.858970
LeftShoulder -13.811601 -2.507096 27.669212
LeftArm 0.537077 -11.375636 -81.466189
LeftForeArm -45.734659 0.000000 126.778759
LeftHand 5.328800 -0.000000 -30.798282
LeftHandThumb1 -26.253704 0.000000 33.147579
RightShoulder -18.060073 -18.247882 -19.800329
RightArm 6.572084 -14.015246 77.995282
RightForeArm -19.421991 -0.000000 20.482324
RightHand 17.485381 -0.000000 7.902947
RightHandThumb1 -24.326973 -0.000000 -32.862282
LeftUpLeg 13.236308 13.264624 14.695961
LeftLeg -2.276258 -0.000000 0.000000
LeftFoot -19.926625 15.809922 -17.738710
LeftToeBase 22.750678 -0.000000 -0.000000
RightUpLeg -80.794689 -15.449373 -2.506625
RightLeg 124.243321 -0.000000 -0.000000
RightFoot 28.362196 -26.096143 17.278825
RightToeBase 7.305310 -0.000000 -0.000000
2232
root 7.178941 33.561031 -0.136331 -1.234477 -14.837556 -23.611755
Spine 8.522675 5.661018 21.382806
Head 8.086029 -6.353967 5.725377
LeftShoulder -13.844106 -2.453518 27.657228
LeftArm 0.498154 -11.471384 -81.496374
LeftForeArm -45.702986 0.000000 126.837173
LeftHand 5.326076 -0.000000 -30.890052
LeftHandThumb1 -26.253704 0.000000 33.147579
RightShoulder -18.046476 -18.307373 -19.833459
RightArm 6.549036 -14.107771 78.126339
RightForeArm -19.410493 -0.000000 20.457298
RightHand 17.443863 -0.000000 7.887617
RightHandThumb1 -24.326973 -0.000000 -32.862282
LeftUpLeg 13.275119 13.249587 14.578322
LeftLeg -2.328351 -0.000000 0.000000
LeftFoot -19.905404 15.905684 -17.663395
LeftToeBase 22.524542 -0.000000 -0.000000
RightUpLeg -80.878903 -15.534898 -2.285222
RightLeg 124.017452 -0.000000 -0.000000
RightFoot 28.606384 -26.184418 17.212490
RightToeBase 6.761126 -0.000000 -0.000000
2233
root 7.184504 33.551753 -0.139858 -1.232996 -14.908740 -23.510716
Spine 8.510306 5.706331 21.299344
Head 8.137500 -6.343234 5.605935
LeftShoulder -13.850266 -2.424115 27.650923
LeftArm 0.444320 -11.571054 -81.504568
LeftForeArm -45.681098 -0.000000 126.908333
LeftHand 5.288453 0.000000 -31.085844
LeftHandThumb1 -26.253704 0.000000 33.147579
RightShoulder -18.060164 -18.355474 -19.864952
RightArm 6.509614 -14.204123 78.259200
RightForeArm -19.463970 -0.000000 20.435646
RightHand 17.562507 -0.000000 8.423169
RightHandThumb1 -24.326973 -0.000000 -32.862282
LeftUpLeg 13.296751 13.265667 14.460370
LeftLeg -2.399393 -0.000000 0.000000
LeftFoot -19.893186 15.921351 -17.717753
LeftToeBase 22.612065 -0.000000 -0.000000
RightUpLeg -80.964990 -15.608304 -2.066489
RightLeg 123.859048 -0.000000 -0.000000
RightFoot 28.465043 -26.148889 17.376248
RightToeBase 6.883900 -0.000000 -0.000000
2234
root 7.188765 33.543876 -0.144136 -1.223845 -14.971107 -23.434826
Spine 8.494103 5.739006 21.254146
Head 8.191530 -6.334416 5.441647
LeftShoulder -13.857391 -2.391781 27.619729
LeftArm 0.401757 -11.647274 -81.501075
LeftForeArm -45.682829 -0.000000 126.960229
LeftHand 5.296655 0.000000 -30.919995
LeftHandThumb1 -26.253704 0.000000 33.147579
RightShoulder -18.086400 -18.417307 -19.891842
RightArm 6.510105 -14.368092 78.356135
RightForeArm -19.367985 -0.000000 20.425751
RightHand 17.511001 -0.000000 8.075073
RightHandThumb1 -24.326973 -0.000000 -32.862282
LeftUpLeg 13.318767 13.319509 14.377592
LeftLeg -2.476542 -0.000000 0.000000
LeftFoot -19.944508 15.907529 -17.876368
LeftToeBase 22.822501 -0.000000 -0.000000
RightUpLeg -81.053510 -15.686230 -1.813197
RightLeg 123.680929 -0.000000 -0.000000
RightFoot 28.076919 -26.316144 17.901663
RightToeBase 7.557721 -0.000000 -0.000000
2235
root 7.193991 33.534618 -0.147200 -1.243752 -15.027890 -23.323140
Spine 8.497018 5.752428 21.156795
Head 8.248814 -6.299385 5.302843
LeftShoulder -13.888058 -2.309358 27.609513
LeftArm 0.431982 -11.710771 -81.531829
LeftForeArm -45.766894 -0.000000 127.000703
LeftHand 5.317930 0.000000 -30.921963
LeftHandThumb1 -26.253704 0.000000 33.147579
RightShoulder -18.078292 -18.451366 -19.915512
RightArm 6.484103 -14.496032 78.453117
RightForeArm -19.366475 -0.000000 20.420928
RightHand 17.496651 0.000000 8.181335
RightHandThumb1 -24.326973 -0.000000 -32.862282
LeftUpLeg 13.345568 13.318841 14.242289
LeftLeg -2.509155 -0.000000 0.000000
LeftFoot -19.984824 15.987843 -17.916216
LeftToeBase 23.099175 -0.000000 -0.000000
RightUpLeg -81.139657 -15.755797 -1.595708
RightLeg 123.524315 -0.000000 -0.000000
RightFoot 27.971909 -26.446747 18.045004
RightToeBase 7.831704 -0.000000 -0.000000
2236
root 7.197240 33.527765 -0.151984 -1.232832 -15.087153 -23.260844
Spine 8.478531 5.769003 21.120007
Head 8.310215 -6.248315 5.147030
LeftShoulder -13.922067 -2.244376 27.570263
LeftArm 0.442984 -11.723633 -81.537462
LeftForeArm -45.826306 -0.000000 127.062326
LeftHand 5.237477 -0.000000 -30.957101
LeftHandThumb1 -26.253704 0.000000 33.147579
RightShoulder -18.054615 -18.479804 -19.958802
RightArm 6.439597 -14.636786 78.558550
RightForeArm -19.489462 -0.000000 20.402797
RightHand 17.518029 0.000000 8.681258
RightHandThumb1 -24.326973 -0.000000 -32.862282
LeftUpLeg 13.356434 13.383645 14.178439
LeftLeg -2.565413 -0.000000 0.000000
LeftFoot -19.999363 15.876279 -18.045770
LeftToeBase 23.295071 -0.000000 -0.000000
RightUpLeg -81.216050 -15.823045 -1.298347
RightLeg 123.339183 -0.000000 -0.000000
RightFoot 28.059282 -26.384555 17.914031
RightToeBase 7.779062 -0.000000 -0.000000
2237
root 7.198371 33.520627 -0.152900 -1.226196 -15.190256 -23.205695
Spine 8.469216 5.826420 21.092580
Head 8.381663 -6.213036 4.983732
LeftShoulder -13.981570 -2.189410 27.528697
LeftArm 0.464500 -11.705246 -81.522190
LeftForeArm -45.862522 -0.000000 127.128660
LeftHand 5.285253 -0.000000 -31.093120
LeftHandThumb1 -26.253704 0.000000 33.147579
RightShoulder -18.046943 -18.499659 -19.995115
RightArm 6.402004 -14.816335 78.635336
RightForeArm -19.393930 0.000000 20.377448
RightHand 17.543865 -0.000000 8.254973
RightHandThumb1 -24.326973 -0.000000 -32.862282
LeftUpLeg 13.414263 13.533709 14.138718
LeftLeg -2.639668 -0.000000 0.000000
LeftFoot -19.986173 15.829961 -18.054861
LeftToeBase 23.348449 -0.000000 -0.000000
RightUpLeg -81.300278 -15.850030 -0.986726
RightLeg 123.153688 -0.000000 -0.000000
RightFoot 27.950547 -26.487644 18.106161
RightToeBase 8.213312 -0.000000 -0.000000
2238
root 7.201229 33.512032 -0.156938 -1.220384 -15.253598 -23.121560
Spine 8.453513 5.874243 21.031405
Head 8.421821 -6.193197 4.835758
LeftShoulder -14.028826 -2.168985 27.496238
LeftArm 0.484687 -11.666461 -81.500114
LeftForeArm -45.843913 -0.000000 127.197666
LeftHand 5.242184 -0.000000 -31.279056
LeftHandThumb1 -26.253704 0.000000 33.147579
RightShoulder -18.031850 -18.500867 -20.034929
RightArm 6.300812 -14.915553 78.749580
RightForeArm -19.394406 -0.000000 20.399970
RightHand 17.536927 0.000000 8.270916
RightHandThumb1 -24.326973 -0.000000 -32.862282
LeftUpLeg 13.424942 13.610207 14.044057
LeftLeg -2.679149 -0.000000 0.000000
LeftFoot -19.918396 15.845654 -17.957408
LeftToeBase 23.026660 -0.000000 -0.000000
RightUpLeg -81.399316 -15.915016 -0.744152
RightLeg 122.982075 -0.000000 -0.000000
RightFoot 27.352280 -26.864545 18.907314
RightToeBase 9.536291 -0.000000 -0.000000
2239
root 7.205978 33.502719 -0.160885 -1.218823 -15.306505 -23.021140
Spine 8.436915 5.912175 20.953350
Head 8.457656 -6.171954 4.690669
LeftShoulder -14.080115 -2.162332 27.451263
LeftArm 0.489440 -11.540933 -81.404421
LeftForeArm -45.954126 -0.000000 127.269667
LeftHand 5.318928 -0.000000 -30.758970
LeftHandThumb1 -26.253704 0.000000 33.147579
RightShoulder -18.017641 -18.491350 -20.078175
RightArm 6.203518 -15.035528 78.849562
RightForeArm -19.422520 -0.000000 20.411926
RightHand 17.595505 -0.000000 8.174574
RightHandThumb1 -24.326973 -0.000000 -32.862282
LeftUpLeg 13.435198 13.700015 13.936044
LeftLeg -2.732622 -0.000000 0.000000
LeftFoot -19.898389 15.850594 -17.918409
LeftToeBase 23.126391 -0.000000 -0.000000
RightUpLeg -81.503329 -16.002969 -0.484621
RightLeg 122.831519 -0.000000 -0.000000
RightFoot 27.199859 -27.003558 19.074809
RightToeBase 10.458416 -0.000000 -0.000000
2240
root 7.211614 33.492399 -0.164436 -1.219943 -15.373193 -22.908429
Spine 8.422770 5.989405 20.863594
Head 8.491650 -6.188674 4.565917
LeftShoulder -14.091317 -2.124477 27.452835
LeftArm 0.526922 -11.483143 -81.399943
LeftForeArm -45.937691 -0.000000 127.300840
LeftHand 5.272575 -0.000000 -30.759873
LeftHandThumb1 -26.253704 0.000000 33.147579
RightShoulder -18.020687 -18.536537 -20.111893
RightArm 6.134553 -15.113670 78.945316
RightForeArm -19.339254 -0.000000 20.454745
RightHand 17.585874 0.000000 8.295922
RightHandThumb1 -24.326973 -0.000000 -32.862282
LeftUpLeg 13.461535 13.819988 13.819716
LeftLeg -2.819936 -0.000000 0.000000
LeftFoot -19.921032 15.843308 -18.011181
LeftToeBase 23.366007 -0.000000 -0.000000
RightUpLeg -81.620829 -16.075773 -0.235828
RightLeg 122.685436 -0.000000 -0.000000
RightFoot 27.359582 -27.016760 18.943825
RightToeBase 9.469741 -0.000000 -0.000000
